<svg xmlns="http://www.w3.org/2000/svg" width="1920" height="320" viewBox="0 0 1920 320">
<defs><radialGradient id="bulbGlow" cx="50%" cy="50%" r="50%">
    <stop offset="0%" stop-color="#FFF6DF" stop-opacity="0.95"/>
    <stop offset="45%" stop-color="#EDD9B5" stop-opacity="0.55"/>
    <stop offset="100%" stop-color="#EDD9B5" stop-opacity="0"/>
    </radialGradient></defs>
<path d="M-40.0,-20.0 Q110.0,35.0 260.0,-20.0" fill="none" stroke="#7A9480" stroke-width="2.5" opacity="0.55"/>
<circle cx="-32.0" cy="-20.0" r="5.0" fill="#F0A500" opacity="0.92"/>
<circle cx="-35.0" cy="-13.7" r="5.0" fill="#F0A500" opacity="0.92"/>
<circle cx="-41.8" cy="-12.2" r="5.0" fill="#F0A500" opacity="0.92"/>
<circle cx="-47.2" cy="-16.5" r="5.0" fill="#F0A500" opacity="0.92"/>
<circle cx="-47.2" cy="-23.5" r="5.0" fill="#F0A500" opacity="0.92"/>
<circle cx="-41.8" cy="-27.8" r="5.0" fill="#F0A500" opacity="0.92"/>
<circle cx="-35.0" cy="-26.3" r="5.0" fill="#F0A500" opacity="0.92"/>
<circle cx="-40.0" cy="-20.0" r="4.4" fill="#C97A00"/>
<circle cx="-16.9" cy="-12.2" r="3" fill="#F5C518" opacity="0.9"/>
<circle cx="12.7" cy="-5.7" r="4.0" fill="#F0A500" opacity="0.92"/>
<circle cx="10.2" cy="-0.6" r="4.0" fill="#F0A500" opacity="0.92"/>
<circle cx="4.7" cy="0.7" r="4.0" fill="#F0A500" opacity="0.92"/>
<circle cx="0.3" cy="-2.9" r="4.0" fill="#F0A500" opacity="0.92"/>
<circle cx="0.3" cy="-8.5" r="4.0" fill="#F0A500" opacity="0.92"/>
<circle cx="4.7" cy="-12.0" r="4.0" fill="#F0A500" opacity="0.92"/>
<circle cx="10.2" cy="-10.8" r="4.0" fill="#F0A500" opacity="0.92"/>
<circle cx="6.2" cy="-5.7" r="3.6" fill="#C97A00"/>
<circle cx="29.2" cy="-0.5" r="3" fill="#F5C518" opacity="0.9"/>
<circle cx="60.3" cy="3.4" r="5.0" fill="#F0A500" opacity="0.92"/>
<circle cx="57.3" cy="9.7" r="5.0" fill="#F0A500" opacity="0.92"/>
<circle cx="50.5" cy="11.2" r="5.0" fill="#F0A500" opacity="0.92"/>
<circle cx="45.1" cy="6.9" r="5.0" fill="#F0A500" opacity="0.92"/>
<circle cx="45.1" cy="-0.0" r="5.0" fill="#F0A500" opacity="0.92"/>
<circle cx="50.5" cy="-4.4" r="5.0" fill="#F0A500" opacity="0.92"/>
<circle cx="57.3" cy="-2.8" r="5.0" fill="#F0A500" opacity="0.92"/>
<circle cx="52.3" cy="3.4" r="4.4" fill="#C97A00"/>
<circle cx="75.4" cy="6.0" r="3" fill="#F5C518" opacity="0.9"/>
<circle cx="105.0" cy="7.3" r="4.0" fill="#F0A500" opacity="0.92"/>
<circle cx="102.5" cy="12.4" r="4.0" fill="#F0A500" opacity="0.92"/>
<circle cx="97.0" cy="13.7" r="4.0" fill="#F0A500" opacity="0.92"/>
<circle cx="92.6" cy="10.2" r="4.0" fill="#F0A500" opacity="0.92"/>
<circle cx="92.6" cy="4.5" r="4.0" fill="#F0A500" opacity="0.92"/>
<circle cx="97.0" cy="1.0" r="4.0" fill="#F0A500" opacity="0.92"/>
<circle cx="102.5" cy="2.3" r="4.0" fill="#F0A500" opacity="0.92"/>
<circle cx="98.5" cy="7.3" r="3.6" fill="#C97A00"/>
<circle cx="121.5" cy="7.3" r="3" fill="#F5C518" opacity="0.9"/>
<circle cx="152.6" cy="6.0" r="5.0" fill="#F0A500" opacity="0.92"/>
<circle cx="149.6" cy="12.3" r="5.0" fill="#F0A500" opacity="0.92"/>
<circle cx="142.8" cy="13.8" r="5.0" fill="#F0A500" opacity="0.92"/>
<circle cx="137.4" cy="9.5" r="5.0" fill="#F0A500" opacity="0.92"/>
<circle cx="137.4" cy="2.6" r="5.0" fill="#F0A500" opacity="0.92"/>
<circle cx="142.8" cy="-1.8" r="5.0" fill="#F0A500" opacity="0.92"/>
<circle cx="149.6" cy="-0.2" r="5.0" fill="#F0A500" opacity="0.92"/>
<circle cx="144.6" cy="6.0" r="4.4" fill="#C97A00"/>
<circle cx="167.7" cy="3.4" r="3" fill="#F5C518" opacity="0.9"/>
<circle cx="197.3" cy="-0.5" r="4.0" fill="#F0A500" opacity="0.92"/>
<circle cx="194.8" cy="4.6" r="4.0" fill="#F0A500" opacity="0.92"/>
<circle cx="189.3" cy="5.9" r="4.0" fill="#F0A500" opacity="0.92"/>
<circle cx="184.9" cy="2.3" r="4.0" fill="#F0A500" opacity="0.92"/>
<circle cx="184.9" cy="-3.3" r="4.0" fill="#F0A500" opacity="0.92"/>
<circle cx="189.3" cy="-6.8" r="4.0" fill="#F0A500" opacity="0.92"/>
<circle cx="194.8" cy="-5.6" r="4.0" fill="#F0A500" opacity="0.92"/>
<circle cx="190.8" cy="-0.5" r="3.6" fill="#C97A00"/>
<circle cx="213.8" cy="-5.7" r="3" fill="#F5C518" opacity="0.9"/>
<circle cx="244.9" cy="-12.2" r="5.0" fill="#F0A500" opacity="0.92"/>
<circle cx="241.9" cy="-5.9" r="5.0" fill="#F0A500" opacity="0.92"/>
<circle cx="235.1" cy="-4.4" r="5.0" fill="#F0A500" opacity="0.92"/>
<circle cx="229.7" cy="-8.7" r="5.0" fill="#F0A500" opacity="0.92"/>
<circle cx="229.7" cy="-15.7" r="5.0" fill="#F0A500" opacity="0.92"/>
<circle cx="235.1" cy="-20.0" r="5.0" fill="#F0A500" opacity="0.92"/>
<circle cx="241.9" cy="-18.4" r="5.0" fill="#F0A500" opacity="0.92"/>
<circle cx="236.9" cy="-12.2" r="4.4" fill="#C97A00"/>
<circle cx="260.0" cy="-20.0" r="3" fill="#F5C518" opacity="0.9"/>
<path d="M260.0,-20.0 Q400.0,48.0 540.0,-20.0" fill="none" stroke="#7A9480" stroke-width="2.5" opacity="0.55"/>
<circle cx="268.0" cy="-20.0" r="5.0" fill="#F5C518" opacity="0.92"/>
<circle cx="265.0" cy="-13.7" r="5.0" fill="#F5C518" opacity="0.92"/>
<circle cx="258.2" cy="-12.2" r="5.0" fill="#F5C518" opacity="0.92"/>
<circle cx="252.8" cy="-16.5" r="5.0" fill="#F5C518" opacity="0.92"/>
<circle cx="252.8" cy="-23.5" r="5.0" fill="#F5C518" opacity="0.92"/>
<circle cx="258.2" cy="-27.8" r="5.0" fill="#F5C518" opacity="0.92"/>
<circle cx="265.0" cy="-26.3" r="5.0" fill="#F5C518" opacity="0.92"/>
<circle cx="260.0" cy="-20.0" r="4.4" fill="#C97A00"/>
<circle cx="281.5" cy="-10.3" r="3" fill="#F5C518" opacity="0.9"/>
<circle cx="309.6" cy="-2.3" r="4.0" fill="#F5C518" opacity="0.92"/>
<circle cx="307.1" cy="2.8" r="4.0" fill="#F5C518" opacity="0.92"/>
<circle cx="301.6" cy="4.0" r="4.0" fill="#F5C518" opacity="0.92"/>
<circle cx="297.2" cy="0.5" r="4.0" fill="#F5C518" opacity="0.92"/>
<circle cx="297.2" cy="-5.1" r="4.0" fill="#F5C518" opacity="0.92"/>
<circle cx="301.6" cy="-8.6" r="4.0" fill="#F5C518" opacity="0.92"/>
<circle cx="307.1" cy="-7.4" r="4.0" fill="#F5C518" opacity="0.92"/>
<circle cx="303.1" cy="-2.3" r="3.6" fill="#C97A00"/>
<circle cx="324.6" cy="4.1" r="3" fill="#F5C518" opacity="0.9"/>
<circle cx="354.2" cy="9.0" r="5.0" fill="#F5C518" opacity="0.92"/>
<circle cx="351.1" cy="15.2" r="5.0" fill="#F5C518" opacity="0.92"/>
<circle cx="344.4" cy="16.8" r="5.0" fill="#F5C518" opacity="0.92"/>
<circle cx="338.9" cy="12.4" r="5.0" fill="#F5C518" opacity="0.92"/>
<circle cx="338.9" cy="5.5" r="5.0" fill="#F5C518" opacity="0.92"/>
<circle cx="344.4" cy="1.2" r="5.0" fill="#F5C518" opacity="0.92"/>
<circle cx="351.1" cy="2.7" r="5.0" fill="#F5C518" opacity="0.92"/>
<circle cx="346.2" cy="9.0" r="4.4" fill="#C97A00"/>
<circle cx="367.7" cy="12.2" r="3" fill="#F5C518" opacity="0.9"/>
<circle cx="395.7" cy="13.8" r="4.0" fill="#F5C518" opacity="0.92"/>
<circle cx="393.3" cy="18.9" r="4.0" fill="#F5C518" opacity="0.92"/>
<circle cx="387.8" cy="20.1" r="4.0" fill="#F5C518" opacity="0.92"/>
<circle cx="383.4" cy="16.6" r="4.0" fill="#F5C518" opacity="0.92"/>
<circle cx="383.4" cy="11.0" r="4.0" fill="#F5C518" opacity="0.92"/>
<circle cx="387.8" cy="7.5" r="4.0" fill="#F5C518" opacity="0.92"/>
<circle cx="393.3" cy="8.7" r="4.0" fill="#F5C518" opacity="0.92"/>
<circle cx="389.2" cy="13.8" r="3.6" fill="#C97A00"/>
<circle cx="410.8" cy="13.8" r="3" fill="#F5C518" opacity="0.9"/>
<circle cx="440.3" cy="12.2" r="5.0" fill="#F5C518" opacity="0.92"/>
<circle cx="437.3" cy="18.4" r="5.0" fill="#F5C518" opacity="0.92"/>
<circle cx="430.5" cy="20.0" r="5.0" fill="#F5C518" opacity="0.92"/>
<circle cx="425.1" cy="15.7" r="5.0" fill="#F5C518" opacity="0.92"/>
<circle cx="425.1" cy="8.7" r="5.0" fill="#F5C518" opacity="0.92"/>
<circle cx="430.5" cy="4.4" r="5.0" fill="#F5C518" opacity="0.92"/>
<circle cx="437.3" cy="5.9" r="5.0" fill="#F5C518" opacity="0.92"/>
<circle cx="432.3" cy="12.2" r="4.4" fill="#C97A00"/>
<circle cx="453.8" cy="9.0" r="3" fill="#F5C518" opacity="0.9"/>
<circle cx="481.9" cy="4.1" r="4.0" fill="#F5C518" opacity="0.92"/>
<circle cx="479.4" cy="9.2" r="4.0" fill="#F5C518" opacity="0.92"/>
<circle cx="473.9" cy="10.5" r="4.0" fill="#F5C518" opacity="0.92"/>
<circle cx="469.5" cy="7.0" r="4.0" fill="#F5C518" opacity="0.92"/>
<circle cx="469.5" cy="1.3" r="4.0" fill="#F5C518" opacity="0.92"/>
<circle cx="473.9" cy="-2.2" r="4.0" fill="#F5C518" opacity="0.92"/>
<circle cx="479.4" cy="-0.9" r="4.0" fill="#F5C518" opacity="0.92"/>
<circle cx="475.4" cy="4.1" r="3.6" fill="#C97A00"/>
<circle cx="496.9" cy="-2.3" r="3" fill="#F5C518" opacity="0.9"/>
<circle cx="526.5" cy="-10.3" r="5.0" fill="#F5C518" opacity="0.92"/>
<circle cx="523.4" cy="-4.1" r="5.0" fill="#F5C518" opacity="0.92"/>
<circle cx="516.7" cy="-2.5" r="5.0" fill="#F5C518" opacity="0.92"/>
<circle cx="511.3" cy="-6.9" r="5.0" fill="#F5C518" opacity="0.92"/>
<circle cx="511.3" cy="-13.8" r="5.0" fill="#F5C518" opacity="0.92"/>
<circle cx="516.7" cy="-18.1" r="5.0" fill="#F5C518" opacity="0.92"/>
<circle cx="523.4" cy="-16.6" r="5.0" fill="#F5C518" opacity="0.92"/>
<circle cx="518.5" cy="-10.3" r="4.4" fill="#C97A00"/>
<circle cx="540.0" cy="-20.0" r="3" fill="#F5C518" opacity="0.9"/>
<path d="M540.0,-20.0 Q680.0,40.0 820.0,-20.0" fill="none" stroke="#7A9480" stroke-width="2.5" opacity="0.55"/>
<circle cx="548.0" cy="-20.0" r="5.0" fill="#F0A500" opacity="0.92"/>
<circle cx="545.0" cy="-13.7" r="5.0" fill="#F0A500" opacity="0.92"/>
<circle cx="538.2" cy="-12.2" r="5.0" fill="#F0A500" opacity="0.92"/>
<circle cx="532.8" cy="-16.5" r="5.0" fill="#F0A500" opacity="0.92"/>
<circle cx="532.8" cy="-23.5" r="5.0" fill="#F0A500" opacity="0.92"/>
<circle cx="538.2" cy="-27.8" r="5.0" fill="#F0A500" opacity="0.92"/>
<circle cx="545.0" cy="-26.3" r="5.0" fill="#F0A500" opacity="0.92"/>
<circle cx="540.0" cy="-20.0" r="4.4" fill="#C97A00"/>
<circle cx="561.5" cy="-11.5" r="3" fill="#F5C518" opacity="0.9"/>
<circle cx="589.6" cy="-4.4" r="4.0" fill="#F0A500" opacity="0.92"/>
<circle cx="587.1" cy="0.7" r="4.0" fill="#F0A500" opacity="0.92"/>
<circle cx="581.6" cy="2.0" r="4.0" fill="#F0A500" opacity="0.92"/>
<circle cx="577.2" cy="-1.6" r="4.0" fill="#F0A500" opacity="0.92"/>
<circle cx="577.2" cy="-7.2" r="4.0" fill="#F0A500" opacity="0.92"/>
<circle cx="581.6" cy="-10.7" r="4.0" fill="#F0A500" opacity="0.92"/>
<circle cx="587.1" cy="-9.5" r="4.0" fill="#F0A500" opacity="0.92"/>
<circle cx="583.1" cy="-4.4" r="3.6" fill="#C97A00"/>
<circle cx="604.6" cy="1.3" r="3" fill="#F5C518" opacity="0.9"/>
<circle cx="634.2" cy="5.6" r="5.0" fill="#F0A500" opacity="0.92"/>
<circle cx="631.1" cy="11.8" r="5.0" fill="#F0A500" opacity="0.92"/>
<circle cx="624.4" cy="13.4" r="5.0" fill="#F0A500" opacity="0.92"/>
<circle cx="618.9" cy="9.0" r="5.0" fill="#F0A500" opacity="0.92"/>
<circle cx="618.9" cy="2.1" r="5.0" fill="#F0A500" opacity="0.92"/>
<circle cx="624.4" cy="-2.2" r="5.0" fill="#F0A500" opacity="0.92"/>
<circle cx="631.1" cy="-0.7" r="5.0" fill="#F0A500" opacity="0.92"/>
<circle cx="626.2" cy="5.6" r="4.4" fill="#C97A00"/>
<circle cx="647.7" cy="8.4" r="3" fill="#F5C518" opacity="0.9"/>
<circle cx="675.7" cy="9.8" r="4.0" fill="#F0A500" opacity="0.92"/>
<circle cx="673.3" cy="14.9" r="4.0" fill="#F0A500" opacity="0.92"/>
<circle cx="667.8" cy="16.2" r="4.0" fill="#F0A500" opacity="0.92"/>
<circle cx="663.4" cy="12.6" r="4.0" fill="#F0A500" opacity="0.92"/>
<circle cx="663.4" cy="7.0" r="4.0" fill="#F0A500" opacity="0.92"/>
<circle cx="667.8" cy="3.5" r="4.0" fill="#F0A500" opacity="0.92"/>
<circle cx="673.3" cy="4.7" r="4.0" fill="#F0A500" opacity="0.92"/>
<circle cx="669.2" cy="9.8" r="3.6" fill="#C97A00"/>
<circle cx="690.8" cy="9.8" r="3" fill="#F5C518" opacity="0.9"/>
<circle cx="720.3" cy="8.4" r="5.0" fill="#F0A500" opacity="0.92"/>
<circle cx="717.3" cy="14.7" r="5.0" fill="#F0A500" opacity="0.92"/>
<circle cx="710.5" cy="16.2" r="5.0" fill="#F0A500" opacity="0.92"/>
<circle cx="705.1" cy="11.9" r="5.0" fill="#F0A500" opacity="0.92"/>
<circle cx="705.1" cy="4.9" r="5.0" fill="#F0A500" opacity="0.92"/>
<circle cx="710.5" cy="0.6" r="5.0" fill="#F0A500" opacity="0.92"/>
<circle cx="717.3" cy="2.1" r="5.0" fill="#F0A500" opacity="0.92"/>
<circle cx="712.3" cy="8.4" r="4.4" fill="#C97A00"/>
<circle cx="733.8" cy="5.6" r="3" fill="#F5C518" opacity="0.9"/>
<circle cx="761.9" cy="1.3" r="4.0" fill="#F0A500" opacity="0.92"/>
<circle cx="759.4" cy="6.4" r="4.0" fill="#F0A500" opacity="0.92"/>
<circle cx="753.9" cy="7.6" r="4.0" fill="#F0A500" opacity="0.92"/>
<circle cx="749.5" cy="4.1" r="4.0" fill="#F0A500" opacity="0.92"/>
<circle cx="749.5" cy="-1.5" r="4.0" fill="#F0A500" opacity="0.92"/>
<circle cx="753.9" cy="-5.0" r="4.0" fill="#F0A500" opacity="0.92"/>
<circle cx="759.4" cy="-3.8" r="4.0" fill="#F0A500" opacity="0.92"/>
<circle cx="755.4" cy="1.3" r="3.6" fill="#C97A00"/>
<circle cx="776.9" cy="-4.4" r="3" fill="#F5C518" opacity="0.9"/>
<circle cx="806.5" cy="-11.5" r="5.0" fill="#F0A500" opacity="0.92"/>
<circle cx="803.4" cy="-5.2" r="5.0" fill="#F0A500" opacity="0.92"/>
<circle cx="796.7" cy="-3.7" r="5.0" fill="#F0A500" opacity="0.92"/>
<circle cx="791.3" cy="-8.0" r="5.0" fill="#F0A500" opacity="0.92"/>
<circle cx="791.3" cy="-15.0" r="5.0" fill="#F0A500" opacity="0.92"/>
<circle cx="796.7" cy="-19.3" r="5.0" fill="#F0A500" opacity="0.92"/>
<circle cx="803.4" cy="-17.7" r="5.0" fill="#F0A500" opacity="0.92"/>
<circle cx="798.5" cy="-11.5" r="4.4" fill="#C97A00"/>
<circle cx="820.0" cy="-20.0" r="3" fill="#F5C518" opacity="0.9"/>
<path d="M820.0,-20.0 Q960.0,52.0 1100.0,-20.0" fill="none" stroke="#7A9480" stroke-width="2.5" opacity="0.55"/>
<circle cx="828.0" cy="-20.0" r="5.0" fill="#F5C518" opacity="0.92"/>
<circle cx="825.0" cy="-13.7" r="5.0" fill="#F5C518" opacity="0.92"/>
<circle cx="818.2" cy="-12.2" r="5.0" fill="#F5C518" opacity="0.92"/>
<circle cx="812.8" cy="-16.5" r="5.0" fill="#F5C518" opacity="0.92"/>
<circle cx="812.8" cy="-23.5" r="5.0" fill="#F5C518" opacity="0.92"/>
<circle cx="818.2" cy="-27.8" r="5.0" fill="#F5C518" opacity="0.92"/>
<circle cx="825.0" cy="-26.3" r="5.0" fill="#F5C518" opacity="0.92"/>
<circle cx="820.0" cy="-20.0" r="4.4" fill="#C97A00"/>
<circle cx="841.5" cy="-9.8" r="3" fill="#F5C518" opacity="0.9"/>
<circle cx="869.6" cy="-1.3" r="4.0" fill="#F5C518" opacity="0.92"/>
<circle cx="867.1" cy="3.8" r="4.0" fill="#F5C518" opacity="0.92"/>
<circle cx="861.6" cy="5.1" r="4.0" fill="#F5C518" opacity="0.92"/>
<circle cx="857.2" cy="1.6" r="4.0" fill="#F5C518" opacity="0.92"/>
<circle cx="857.2" cy="-4.1" r="4.0" fill="#F5C518" opacity="0.92"/>
<circle cx="861.6" cy="-7.6" r="4.0" fill="#F5C518" opacity="0.92"/>
<circle cx="867.1" cy="-6.3" r="4.0" fill="#F5C518" opacity="0.92"/>
<circle cx="863.1" cy="-1.3" r="3.6" fill="#C97A00"/>
<circle cx="884.6" cy="5.6" r="3" fill="#F5C518" opacity="0.9"/>
<circle cx="914.2" cy="10.7" r="5.0" fill="#F5C518" opacity="0.92"/>
<circle cx="911.1" cy="16.9" r="5.0" fill="#F5C518" opacity="0.92"/>
<circle cx="904.4" cy="18.5" r="5.0" fill="#F5C518" opacity="0.92"/>
<circle cx="898.9" cy="14.1" r="5.0" fill="#F5C518" opacity="0.92"/>
<circle cx="898.9" cy="7.2" r="5.0" fill="#F5C518" opacity="0.92"/>
<circle cx="904.4" cy="2.9" r="5.0" fill="#F5C518" opacity="0.92"/>
<circle cx="911.1" cy="4.4" r="5.0" fill="#F5C518" opacity="0.92"/>
<circle cx="906.2" cy="10.7" r="4.4" fill="#C97A00"/>
<circle cx="927.7" cy="14.1" r="3" fill="#F5C518" opacity="0.9"/>
<circle cx="955.7" cy="15.8" r="4.0" fill="#F5C518" opacity="0.92"/>
<circle cx="953.3" cy="20.9" r="4.0" fill="#F5C518" opacity="0.92"/>
<circle cx="947.8" cy="22.1" r="4.0" fill="#F5C518" opacity="0.92"/>
<circle cx="943.4" cy="18.6" r="4.0" fill="#F5C518" opacity="0.92"/>
<circle cx="943.4" cy="13.0" r="4.0" fill="#F5C518" opacity="0.92"/>
<circle cx="947.8" cy="9.4" r="4.0" fill="#F5C518" opacity="0.92"/>
<circle cx="953.3" cy="10.7" r="4.0" fill="#F5C518" opacity="0.92"/>
<circle cx="949.2" cy="15.8" r="3.6" fill="#C97A00"/>
<circle cx="970.8" cy="15.8" r="3" fill="#F5C518" opacity="0.9"/>
<circle cx="1000.3" cy="14.1" r="5.0" fill="#F5C518" opacity="0.92"/>
<circle cx="997.3" cy="20.3" r="5.0" fill="#F5C518" opacity="0.92"/>
<circle cx="990.5" cy="21.9" r="5.0" fill="#F5C518" opacity="0.92"/>
<circle cx="985.1" cy="17.6" r="5.0" fill="#F5C518" opacity="0.92"/>
<circle cx="985.1" cy="10.6" r="5.0" fill="#F5C518" opacity="0.92"/>
<circle cx="990.5" cy="6.3" r="5.0" fill="#F5C518" opacity="0.92"/>
<circle cx="997.3" cy="7.8" r="5.0" fill="#F5C518" opacity="0.92"/>
<circle cx="992.3" cy="14.1" r="4.4" fill="#C97A00"/>
<circle cx="1013.8" cy="10.7" r="3" fill="#F5C518" opacity="0.9"/>
<circle cx="1041.9" cy="5.6" r="4.0" fill="#F5C518" opacity="0.92"/>
<circle cx="1039.4" cy="10.6" r="4.0" fill="#F5C518" opacity="0.92"/>
<circle cx="1033.9" cy="11.9" r="4.0" fill="#F5C518" opacity="0.92"/>
<circle cx="1029.5" cy="8.4" r="4.0" fill="#F5C518" opacity="0.92"/>
<circle cx="1029.5" cy="2.7" r="4.0" fill="#F5C518" opacity="0.92"/>
<circle cx="1033.9" cy="-0.8" r="4.0" fill="#F5C518" opacity="0.92"/>
<circle cx="1039.4" cy="0.5" r="4.0" fill="#F5C518" opacity="0.92"/>
<circle cx="1035.4" cy="5.6" r="3.6" fill="#C97A00"/>
<circle cx="1056.9" cy="-1.3" r="3" fill="#F5C518" opacity="0.9"/>
<circle cx="1086.5" cy="-9.8" r="5.0" fill="#F5C518" opacity="0.92"/>
<circle cx="1083.4" cy="-3.5" r="5.0" fill="#F5C518" opacity="0.92"/>
<circle cx="1076.7" cy="-2.0" r="5.0" fill="#F5C518" opacity="0.92"/>
<circle cx="1071.3" cy="-6.3" r="5.0" fill="#F5C518" opacity="0.92"/>
<circle cx="1071.3" cy="-13.2" r="5.0" fill="#F5C518" opacity="0.92"/>
<circle cx="1076.7" cy="-17.6" r="5.0" fill="#F5C518" opacity="0.92"/>
<circle cx="1083.4" cy="-16.0" r="5.0" fill="#F5C518" opacity="0.92"/>
<circle cx="1078.5" cy="-9.8" r="4.4" fill="#C97A00"/>
<circle cx="1100.0" cy="-20.0" r="3" fill="#F5C518" opacity="0.9"/>
<path d="M1100.0,-20.0 Q1240.0,40.0 1380.0,-20.0" fill="none" stroke="#7A9480" stroke-width="2.5" opacity="0.55"/>
<circle cx="1108.0" cy="-20.0" r="5.0" fill="#F0A500" opacity="0.92"/>
<circle cx="1105.0" cy="-13.7" r="5.0" fill="#F0A500" opacity="0.92"/>
<circle cx="1098.2" cy="-12.2" r="5.0" fill="#F0A500" opacity="0.92"/>
<circle cx="1092.8" cy="-16.5" r="5.0" fill="#F0A500" opacity="0.92"/>
<circle cx="1092.8" cy="-23.5" r="5.0" fill="#F0A500" opacity="0.92"/>
<circle cx="1098.2" cy="-27.8" r="5.0" fill="#F0A500" opacity="0.92"/>
<circle cx="1105.0" cy="-26.3" r="5.0" fill="#F0A500" opacity="0.92"/>
<circle cx="1100.0" cy="-20.0" r="4.4" fill="#C97A00"/>
<circle cx="1121.5" cy="-11.5" r="3" fill="#F5C518" opacity="0.9"/>
<circle cx="1149.6" cy="-4.4" r="4.0" fill="#F0A500" opacity="0.92"/>
<circle cx="1147.1" cy="0.7" r="4.0" fill="#F0A500" opacity="0.92"/>
<circle cx="1141.6" cy="2.0" r="4.0" fill="#F0A500" opacity="0.92"/>
<circle cx="1137.2" cy="-1.6" r="4.0" fill="#F0A500" opacity="0.92"/>
<circle cx="1137.2" cy="-7.2" r="4.0" fill="#F0A500" opacity="0.92"/>
<circle cx="1141.6" cy="-10.7" r="4.0" fill="#F0A500" opacity="0.92"/>
<circle cx="1147.1" cy="-9.5" r="4.0" fill="#F0A500" opacity="0.92"/>
<circle cx="1143.1" cy="-4.4" r="3.6" fill="#C97A00"/>
<circle cx="1164.6" cy="1.3" r="3" fill="#F5C518" opacity="0.9"/>
<circle cx="1194.2" cy="5.6" r="5.0" fill="#F0A500" opacity="0.92"/>
<circle cx="1191.1" cy="11.8" r="5.0" fill="#F0A500" opacity="0.92"/>
<circle cx="1184.4" cy="13.4" r="5.0" fill="#F0A500" opacity="0.92"/>
<circle cx="1178.9" cy="9.0" r="5.0" fill="#F0A500" opacity="0.92"/>
<circle cx="1178.9" cy="2.1" r="5.0" fill="#F0A500" opacity="0.92"/>
<circle cx="1184.4" cy="-2.2" r="5.0" fill="#F0A500" opacity="0.92"/>
<circle cx="1191.1" cy="-0.7" r="5.0" fill="#F0A500" opacity="0.92"/>
<circle cx="1186.2" cy="5.6" r="4.4" fill="#C97A00"/>
<circle cx="1207.7" cy="8.4" r="3" fill="#F5C518" opacity="0.9"/>
<circle cx="1235.7" cy="9.8" r="4.0" fill="#F0A500" opacity="0.92"/>
<circle cx="1233.3" cy="14.9" r="4.0" fill="#F0A500" opacity="0.92"/>
<circle cx="1227.8" cy="16.2" r="4.0" fill="#F0A500" opacity="0.92"/>
<circle cx="1223.4" cy="12.6" r="4.0" fill="#F0A500" opacity="0.92"/>
<circle cx="1223.4" cy="7.0" r="4.0" fill="#F0A500" opacity="0.92"/>
<circle cx="1227.8" cy="3.5" r="4.0" fill="#F0A500" opacity="0.92"/>
<circle cx="1233.3" cy="4.7" r="4.0" fill="#F0A500" opacity="0.92"/>
<circle cx="1229.2" cy="9.8" r="3.6" fill="#C97A00"/>
<circle cx="1250.8" cy="9.8" r="3" fill="#F5C518" opacity="0.9"/>
<circle cx="1280.3" cy="8.4" r="5.0" fill="#F0A500" opacity="0.92"/>
<circle cx="1277.3" cy="14.7" r="5.0" fill="#F0A500" opacity="0.92"/>
<circle cx="1270.5" cy="16.2" r="5.0" fill="#F0A500" opacity="0.92"/>
<circle cx="1265.1" cy="11.9" r="5.0" fill="#F0A500" opacity="0.92"/>
<circle cx="1265.1" cy="4.9" r="5.0" fill="#F0A500" opacity="0.92"/>
<circle cx="1270.5" cy="0.6" r="5.0" fill="#F0A500" opacity="0.92"/>
<circle cx="1277.3" cy="2.1" r="5.0" fill="#F0A500" opacity="0.92"/>
<circle cx="1272.3" cy="8.4" r="4.4" fill="#C97A00"/>
<circle cx="1293.8" cy="5.6" r="3" fill="#F5C518" opacity="0.9"/>
<circle cx="1321.9" cy="1.3" r="4.0" fill="#F0A500" opacity="0.92"/>
<circle cx="1319.4" cy="6.4" r="4.0" fill="#F0A500" opacity="0.92"/>
<circle cx="1313.9" cy="7.6" r="4.0" fill="#F0A500" opacity="0.92"/>
<circle cx="1309.5" cy="4.1" r="4.0" fill="#F0A500" opacity="0.92"/>
<circle cx="1309.5" cy="-1.5" r="4.0" fill="#F0A500" opacity="0.92"/>
<circle cx="1313.9" cy="-5.0" r="4.0" fill="#F0A500" opacity="0.92"/>
<circle cx="1319.4" cy="-3.8" r="4.0" fill="#F0A500" opacity="0.92"/>
<circle cx="1315.4" cy="1.3" r="3.6" fill="#C97A00"/>
<circle cx="1336.9" cy="-4.4" r="3" fill="#F5C518" opacity="0.9"/>
<circle cx="1366.5" cy="-11.5" r="5.0" fill="#F0A500" opacity="0.92"/>
<circle cx="1363.4" cy="-5.2" r="5.0" fill="#F0A500" opacity="0.92"/>
<circle cx="1356.7" cy="-3.7" r="5.0" fill="#F0A500" opacity="0.92"/>
<circle cx="1351.3" cy="-8.0" r="5.0" fill="#F0A500" opacity="0.92"/>
<circle cx="1351.3" cy="-15.0" r="5.0" fill="#F0A500" opacity="0.92"/>
<circle cx="1356.7" cy="-19.3" r="5.0" fill="#F0A500" opacity="0.92"/>
<circle cx="1363.4" cy="-17.7" r="5.0" fill="#F0A500" opacity="0.92"/>
<circle cx="1358.5" cy="-11.5" r="4.4" fill="#C97A00"/>
<circle cx="1380.0" cy="-20.0" r="3" fill="#F5C518" opacity="0.9"/>
<path d="M1380.0,-20.0 Q1520.0,48.0 1660.0,-20.0" fill="none" stroke="#7A9480" stroke-width="2.5" opacity="0.55"/>
<circle cx="1388.0" cy="-20.0" r="5.0" fill="#F5C518" opacity="0.92"/>
<circle cx="1385.0" cy="-13.7" r="5.0" fill="#F5C518" opacity="0.92"/>
<circle cx="1378.2" cy="-12.2" r="5.0" fill="#F5C518" opacity="0.92"/>
<circle cx="1372.8" cy="-16.5" r="5.0" fill="#F5C518" opacity="0.92"/>
<circle cx="1372.8" cy="-23.5" r="5.0" fill="#F5C518" opacity="0.92"/>
<circle cx="1378.2" cy="-27.8" r="5.0" fill="#F5C518" opacity="0.92"/>
<circle cx="1385.0" cy="-26.3" r="5.0" fill="#F5C518" opacity="0.92"/>
<circle cx="1380.0" cy="-20.0" r="4.4" fill="#C97A00"/>
<circle cx="1401.5" cy="-10.3" r="3" fill="#F5C518" opacity="0.9"/>
<circle cx="1429.6" cy="-2.3" r="4.0" fill="#F5C518" opacity="0.92"/>
<circle cx="1427.1" cy="2.8" r="4.0" fill="#F5C518" opacity="0.92"/>
<circle cx="1421.6" cy="4.0" r="4.0" fill="#F5C518" opacity="0.92"/>
<circle cx="1417.2" cy="0.5" r="4.0" fill="#F5C518" opacity="0.92"/>
<circle cx="1417.2" cy="-5.1" r="4.0" fill="#F5C518" opacity="0.92"/>
<circle cx="1421.6" cy="-8.6" r="4.0" fill="#F5C518" opacity="0.92"/>
<circle cx="1427.1" cy="-7.4" r="4.0" fill="#F5C518" opacity="0.92"/>
<circle cx="1423.1" cy="-2.3" r="3.6" fill="#C97A00"/>
<circle cx="1444.6" cy="4.1" r="3" fill="#F5C518" opacity="0.9"/>
<circle cx="1474.2" cy="9.0" r="5.0" fill="#F5C518" opacity="0.92"/>
<circle cx="1471.1" cy="15.2" r="5.0" fill="#F5C518" opacity="0.92"/>
<circle cx="1464.4" cy="16.8" r="5.0" fill="#F5C518" opacity="0.92"/>
<circle cx="1458.9" cy="12.4" r="5.0" fill="#F5C518" opacity="0.92"/>
<circle cx="1458.9" cy="5.5" r="5.0" fill="#F5C518" opacity="0.92"/>
<circle cx="1464.4" cy="1.2" r="5.0" fill="#F5C518" opacity="0.92"/>
<circle cx="1471.1" cy="2.7" r="5.0" fill="#F5C518" opacity="0.92"/>
<circle cx="1466.2" cy="9.0" r="4.4" fill="#C97A00"/>
<circle cx="1487.7" cy="12.2" r="3" fill="#F5C518" opacity="0.9"/>
<circle cx="1515.7" cy="13.8" r="4.0" fill="#F5C518" opacity="0.92"/>
<circle cx="1513.3" cy="18.9" r="4.0" fill="#F5C518" opacity="0.92"/>
<circle cx="1507.8" cy="20.1" r="4.0" fill="#F5C518" opacity="0.92"/>
<circle cx="1503.4" cy="16.6" r="4.0" fill="#F5C518" opacity="0.92"/>
<circle cx="1503.4" cy="11.0" r="4.0" fill="#F5C518" opacity="0.92"/>
<circle cx="1507.8" cy="7.5" r="4.0" fill="#F5C518" opacity="0.92"/>
<circle cx="1513.3" cy="8.7" r="4.0" fill="#F5C518" opacity="0.92"/>
<circle cx="1509.2" cy="13.8" r="3.6" fill="#C97A00"/>
<circle cx="1530.8" cy="13.8" r="3" fill="#F5C518" opacity="0.9"/>
<circle cx="1560.3" cy="12.2" r="5.0" fill="#F5C518" opacity="0.92"/>
<circle cx="1557.3" cy="18.4" r="5.0" fill="#F5C518" opacity="0.92"/>
<circle cx="1550.5" cy="20.0" r="5.0" fill="#F5C518" opacity="0.92"/>
<circle cx="1545.1" cy="15.7" r="5.0" fill="#F5C518" opacity="0.92"/>
<circle cx="1545.1" cy="8.7" r="5.0" fill="#F5C518" opacity="0.92"/>
<circle cx="1550.5" cy="4.4" r="5.0" fill="#F5C518" opacity="0.92"/>
<circle cx="1557.3" cy="5.9" r="5.0" fill="#F5C518" opacity="0.92"/>
<circle cx="1552.3" cy="12.2" r="4.4" fill="#C97A00"/>
<circle cx="1573.8" cy="9.0" r="3" fill="#F5C518" opacity="0.9"/>
<circle cx="1601.9" cy="4.1" r="4.0" fill="#F5C518" opacity="0.92"/>
<circle cx="1599.4" cy="9.2" r="4.0" fill="#F5C518" opacity="0.92"/>
<circle cx="1593.9" cy="10.5" r="4.0" fill="#F5C518" opacity="0.92"/>
<circle cx="1589.5" cy="7.0" r="4.0" fill="#F5C518" opacity="0.92"/>
<circle cx="1589.5" cy="1.3" r="4.0" fill="#F5C518" opacity="0.92"/>
<circle cx="1593.9" cy="-2.2" r="4.0" fill="#F5C518" opacity="0.92"/>
<circle cx="1599.4" cy="-0.9" r="4.0" fill="#F5C518" opacity="0.92"/>
<circle cx="1595.4" cy="4.1" r="3.6" fill="#C97A00"/>
<circle cx="1616.9" cy="-2.3" r="3" fill="#F5C518" opacity="0.9"/>
<circle cx="1646.5" cy="-10.3" r="5.0" fill="#F5C518" opacity="0.92"/>
<circle cx="1643.4" cy="-4.1" r="5.0" fill="#F5C518" opacity="0.92"/>
<circle cx="1636.7" cy="-2.5" r="5.0" fill="#F5C518" opacity="0.92"/>
<circle cx="1631.3" cy="-6.9" r="5.0" fill="#F5C518" opacity="0.92"/>
<circle cx="1631.3" cy="-13.8" r="5.0" fill="#F5C518" opacity="0.92"/>
<circle cx="1636.7" cy="-18.1" r="5.0" fill="#F5C518" opacity="0.92"/>
<circle cx="1643.4" cy="-16.6" r="5.0" fill="#F5C518" opacity="0.92"/>
<circle cx="1638.5" cy="-10.3" r="4.4" fill="#C97A00"/>
<circle cx="1660.0" cy="-20.0" r="3" fill="#F5C518" opacity="0.9"/>
<path d="M1660.0,-20.0 Q1810.0,35.0 1960.0,-20.0" fill="none" stroke="#7A9480" stroke-width="2.5" opacity="0.55"/>
<circle cx="1668.0" cy="-20.0" r="5.0" fill="#F0A500" opacity="0.92"/>
<circle cx="1665.0" cy="-13.7" r="5.0" fill="#F0A500" opacity="0.92"/>
<circle cx="1658.2" cy="-12.2" r="5.0" fill="#F0A500" opacity="0.92"/>
<circle cx="1652.8" cy="-16.5" r="5.0" fill="#F0A500" opacity="0.92"/>
<circle cx="1652.8" cy="-23.5" r="5.0" fill="#F0A500" opacity="0.92"/>
<circle cx="1658.2" cy="-27.8" r="5.0" fill="#F0A500" opacity="0.92"/>
<circle cx="1665.0" cy="-26.3" r="5.0" fill="#F0A500" opacity="0.92"/>
<circle cx="1660.0" cy="-20.0" r="4.4" fill="#C97A00"/>
<circle cx="1683.1" cy="-12.2" r="3" fill="#F5C518" opacity="0.9"/>
<circle cx="1712.7" cy="-5.7" r="4.0" fill="#F0A500" opacity="0.92"/>
<circle cx="1710.2" cy="-0.6" r="4.0" fill="#F0A500" opacity="0.92"/>
<circle cx="1704.7" cy="0.7" r="4.0" fill="#F0A500" opacity="0.92"/>
<circle cx="1700.3" cy="-2.9" r="4.0" fill="#F0A500" opacity="0.92"/>
<circle cx="1700.3" cy="-8.5" r="4.0" fill="#F0A500" opacity="0.92"/>
<circle cx="1704.7" cy="-12.0" r="4.0" fill="#F0A500" opacity="0.92"/>
<circle cx="1710.2" cy="-10.8" r="4.0" fill="#F0A500" opacity="0.92"/>
<circle cx="1706.2" cy="-5.7" r="3.6" fill="#C97A00"/>
<circle cx="1729.2" cy="-0.5" r="3" fill="#F5C518" opacity="0.9"/>
<circle cx="1760.3" cy="3.4" r="5.0" fill="#F0A500" opacity="0.92"/>
<circle cx="1757.3" cy="9.7" r="5.0" fill="#F0A500" opacity="0.92"/>
<circle cx="1750.5" cy="11.2" r="5.0" fill="#F0A500" opacity="0.92"/>
<circle cx="1745.1" cy="6.9" r="5.0" fill="#F0A500" opacity="0.92"/>
<circle cx="1745.1" cy="-0.0" r="5.0" fill="#F0A500" opacity="0.92"/>
<circle cx="1750.5" cy="-4.4" r="5.0" fill="#F0A500" opacity="0.92"/>
<circle cx="1757.3" cy="-2.8" r="5.0" fill="#F0A500" opacity="0.92"/>
<circle cx="1752.3" cy="3.4" r="4.4" fill="#C97A00"/>
<circle cx="1775.4" cy="6.0" r="3" fill="#F5C518" opacity="0.9"/>
<circle cx="1805.0" cy="7.3" r="4.0" fill="#F0A500" opacity="0.92"/>
<circle cx="1802.5" cy="12.4" r="4.0" fill="#F0A500" opacity="0.92"/>
<circle cx="1797.0" cy="13.7" r="4.0" fill="#F0A500" opacity="0.92"/>
<circle cx="1792.6" cy="10.2" r="4.0" fill="#F0A500" opacity="0.92"/>
<circle cx="1792.6" cy="4.5" r="4.0" fill="#F0A500" opacity="0.92"/>
<circle cx="1797.0" cy="1.0" r="4.0" fill="#F0A500" opacity="0.92"/>
<circle cx="1802.5" cy="2.3" r="4.0" fill="#F0A500" opacity="0.92"/>
<circle cx="1798.5" cy="7.3" r="3.6" fill="#C97A00"/>
<circle cx="1821.5" cy="7.3" r="3" fill="#F5C518" opacity="0.9"/>
<circle cx="1852.6" cy="6.0" r="5.0" fill="#F0A500" opacity="0.92"/>
<circle cx="1849.6" cy="12.3" r="5.0" fill="#F0A500" opacity="0.92"/>
<circle cx="1842.8" cy="13.8" r="5.0" fill="#F0A500" opacity="0.92"/>
<circle cx="1837.4" cy="9.5" r="5.0" fill="#F0A500" opacity="0.92"/>
<circle cx="1837.4" cy="2.6" r="5.0" fill="#F0A500" opacity="0.92"/>
<circle cx="1842.8" cy="-1.8" r="5.0" fill="#F0A500" opacity="0.92"/>
<circle cx="1849.6" cy="-0.2" r="5.0" fill="#F0A500" opacity="0.92"/>
<circle cx="1844.6" cy="6.0" r="4.4" fill="#C97A00"/>
<circle cx="1867.7" cy="3.4" r="3" fill="#F5C518" opacity="0.9"/>
<circle cx="1897.3" cy="-0.5" r="4.0" fill="#F0A500" opacity="0.92"/>
<circle cx="1894.8" cy="4.6" r="4.0" fill="#F0A500" opacity="0.92"/>
<circle cx="1889.3" cy="5.9" r="4.0" fill="#F0A500" opacity="0.92"/>
<circle cx="1884.9" cy="2.3" r="4.0" fill="#F0A500" opacity="0.92"/>
<circle cx="1884.9" cy="-3.3" r="4.0" fill="#F0A500" opacity="0.92"/>
<circle cx="1889.3" cy="-6.8" r="4.0" fill="#F0A500" opacity="0.92"/>
<circle cx="1894.8" cy="-5.6" r="4.0" fill="#F0A500" opacity="0.92"/>
<circle cx="1890.8" cy="-0.5" r="3.6" fill="#C97A00"/>
<circle cx="1913.8" cy="-5.7" r="3" fill="#F5C518" opacity="0.9"/>
<circle cx="1944.9" cy="-12.2" r="5.0" fill="#F0A500" opacity="0.92"/>
<circle cx="1941.9" cy="-5.9" r="5.0" fill="#F0A500" opacity="0.92"/>
<circle cx="1935.1" cy="-4.4" r="5.0" fill="#F0A500" opacity="0.92"/>
<circle cx="1929.7" cy="-8.7" r="5.0" fill="#F0A500" opacity="0.92"/>
<circle cx="1929.7" cy="-15.7" r="5.0" fill="#F0A500" opacity="0.92"/>
<circle cx="1935.1" cy="-20.0" r="5.0" fill="#F0A500" opacity="0.92"/>
<circle cx="1941.9" cy="-18.4" r="5.0" fill="#F0A500" opacity="0.92"/>
<circle cx="1936.9" cy="-12.2" r="4.4" fill="#C97A00"/>
<circle cx="1960.0" cy="-20.0" r="3" fill="#F5C518" opacity="0.9"/>
<g transform="translate(70.0,120.0)">
    <line x1="0" y1="-27.0" x2="0" y2="-9.0" stroke="#9C7C45" stroke-width="2.1"/>
    <path d="M -13.5,3.0 C -13.5,-12.0 13.5,-12.0 13.5,3.0 L 10.5,15.0 C 10.5,19.5 -10.5,19.5 -10.5,15.0 Z" fill="#B8955A" stroke="#9C7C45" stroke-width="0.9"/>
    <circle cx="0" cy="21.8" r="2.4" fill="#9C7C45"/>
    <line x1="0" y1="19.5" x2="0" y2="21.8" stroke="#9C7C45" stroke-width="1.5"/>
    </g>
<g transform="translate(150.0,150.0)">
    <line x1="0" y1="-21.6" x2="0" y2="-7.2" stroke="#9C7C45" stroke-width="1.7"/>
    <path d="M -10.8,2.4 C -10.8,-9.6 10.8,-9.6 10.8,2.4 L 8.4,12.0 C 8.4,15.6 -8.4,15.6 -8.4,12.0 Z" fill="#B8955A" stroke="#9C7C45" stroke-width="0.7"/>
    <circle cx="0" cy="17.4" r="1.9" fill="#9C7C45"/>
    <line x1="0" y1="15.6" x2="0" y2="17.4" stroke="#9C7C45" stroke-width="1.2"/>
    </g>
<g transform="translate(30.0,175.0)">
    <line x1="0" y1="-17.1" x2="0" y2="-5.7" stroke="#9C7C45" stroke-width="1.3"/>
    <path d="M -8.5,1.9 C -8.5,-7.6 8.5,-7.6 8.5,1.9 L 6.6,9.5 C 6.6,12.3 -6.6,12.3 -6.6,9.5 Z" fill="#B8955A" stroke="#9C7C45" stroke-width="0.6"/>
    <circle cx="0" cy="13.8" r="1.5" fill="#9C7C45"/>
    <line x1="0" y1="12.3" x2="0" y2="13.8" stroke="#9C7C45" stroke-width="0.9"/>
    </g>
<g transform="translate(1850.0,120.0)">
    <line x1="0" y1="-27.0" x2="0" y2="-9.0" stroke="#9C7C45" stroke-width="2.1"/>
    <path d="M -13.5,3.0 C -13.5,-12.0 13.5,-12.0 13.5,3.0 L 10.5,15.0 C 10.5,19.5 -10.5,19.5 -10.5,15.0 Z" fill="#B8955A" stroke="#9C7C45" stroke-width="0.9"/>
    <circle cx="0" cy="21.8" r="2.4" fill="#9C7C45"/>
    <line x1="0" y1="19.5" x2="0" y2="21.8" stroke="#9C7C45" stroke-width="1.5"/>
    </g>
<g transform="translate(1770.0,150.0)">
    <line x1="0" y1="-21.6" x2="0" y2="-7.2" stroke="#9C7C45" stroke-width="1.7"/>
    <path d="M -10.8,2.4 C -10.8,-9.6 10.8,-9.6 10.8,2.4 L 8.4,12.0 C 8.4,15.6 -8.4,15.6 -8.4,12.0 Z" fill="#B8955A" stroke="#9C7C45" stroke-width="0.7"/>
    <circle cx="0" cy="17.4" r="1.9" fill="#9C7C45"/>
    <line x1="0" y1="15.6" x2="0" y2="17.4" stroke="#9C7C45" stroke-width="1.2"/>
    </g>
<g transform="translate(1890.0,175.0)">
    <line x1="0" y1="-17.1" x2="0" y2="-5.7" stroke="#9C7C45" stroke-width="1.3"/>
    <path d="M -8.5,1.9 C -8.5,-7.6 8.5,-7.6 8.5,1.9 L 6.6,9.5 C 6.6,12.3 -6.6,12.3 -6.6,9.5 Z" fill="#B8955A" stroke="#9C7C45" stroke-width="0.6"/>
    <circle cx="0" cy="13.8" r="1.5" fill="#9C7C45"/>
    <line x1="0" y1="12.3" x2="0" y2="13.8" stroke="#9C7C45" stroke-width="0.9"/>
    </g>
<line x1="300" y1="95" x2="300" y2="205" stroke="#7A9480" stroke-width="1.6" opacity="0.6"/>
<g>
<ellipse cx="300.0" cy="112.4" rx="3.9" ry="6.0" transform="rotate(0.0 300.0 112.4)" fill="#E8C4BC" opacity="0.9"/>
<ellipse cx="306.7" cy="117.3" rx="3.9" ry="6.0" transform="rotate(72.0 306.7 117.3)" fill="#E8C4BC" opacity="0.9"/>
<ellipse cx="304.1" cy="125.1" rx="3.9" ry="6.0" transform="rotate(144.0 304.1 125.1)" fill="#E8C4BC" opacity="0.9"/>
<ellipse cx="295.9" cy="125.1" rx="3.9" ry="6.0" transform="rotate(216.0 295.9 125.1)" fill="#E8C4BC" opacity="0.9"/>
<ellipse cx="293.3" cy="117.3" rx="3.9" ry="6.0" transform="rotate(288.0 293.3 117.3)" fill="#E8C4BC" opacity="0.9"/>
<circle cx="300.0" cy="119.4" r="2.2" fill="#C9847A"/>
</g>
<g>
<ellipse cx="300.0" cy="137.5" rx="3.5" ry="5.4" transform="rotate(0.0 300.0 137.5)" fill="#E8C4BC" opacity="0.9"/>
<ellipse cx="306.1" cy="141.9" rx="3.5" ry="5.4" transform="rotate(72.0 306.1 141.9)" fill="#E8C4BC" opacity="0.9"/>
<ellipse cx="303.8" cy="149.1" rx="3.5" ry="5.4" transform="rotate(144.0 303.8 149.1)" fill="#E8C4BC" opacity="0.9"/>
<ellipse cx="296.2" cy="149.1" rx="3.5" ry="5.4" transform="rotate(216.0 296.2 149.1)" fill="#E8C4BC" opacity="0.9"/>
<ellipse cx="293.9" cy="141.9" rx="3.5" ry="5.4" transform="rotate(288.0 293.9 141.9)" fill="#E8C4BC" opacity="0.9"/>
<circle cx="300.0" cy="143.9" r="2.0" fill="#B8955A"/>
</g>
<g>
<ellipse cx="300.0" cy="162.5" rx="3.2" ry="4.9" transform="rotate(0.0 300.0 162.5)" fill="#E8C4BC" opacity="0.9"/>
<ellipse cx="305.5" cy="166.5" rx="3.2" ry="4.9" transform="rotate(72.0 305.5 166.5)" fill="#E8C4BC" opacity="0.9"/>
<ellipse cx="303.4" cy="173.0" rx="3.2" ry="4.9" transform="rotate(144.0 303.4 173.0)" fill="#E8C4BC" opacity="0.9"/>
<ellipse cx="296.6" cy="173.0" rx="3.2" ry="4.9" transform="rotate(216.0 296.6 173.0)" fill="#E8C4BC" opacity="0.9"/>
<ellipse cx="294.5" cy="166.5" rx="3.2" ry="4.9" transform="rotate(288.0 294.5 166.5)" fill="#E8C4BC" opacity="0.9"/>
<circle cx="300.0" cy="168.3" r="1.9" fill="#C9847A"/>
</g>
<g>
<ellipse cx="300.0" cy="187.6" rx="2.9" ry="4.4" transform="rotate(0.0 300.0 187.6)" fill="#E8C4BC" opacity="0.9"/>
<ellipse cx="304.9" cy="191.2" rx="2.9" ry="4.4" transform="rotate(72.0 304.9 191.2)" fill="#E8C4BC" opacity="0.9"/>
<ellipse cx="303.1" cy="197.0" rx="2.9" ry="4.4" transform="rotate(144.0 303.1 197.0)" fill="#E8C4BC" opacity="0.9"/>
<ellipse cx="296.9" cy="197.0" rx="2.9" ry="4.4" transform="rotate(216.0 296.9 197.0)" fill="#E8C4BC" opacity="0.9"/>
<ellipse cx="295.1" cy="191.2" rx="2.9" ry="4.4" transform="rotate(288.0 295.1 191.2)" fill="#E8C4BC" opacity="0.9"/>
<circle cx="300.0" cy="192.8" r="1.7" fill="#B8955A"/>
</g>
<path d="M287.0,141.3 Q288.5,152.0 297.0,158.7 Q295.5,148.0 287.0,141.3 Z" fill="#7A9480" opacity="0.7"/>
<path d="M303.5,177.8 Q311.0,171.8 312.5,162.2 Q305.0,168.2 303.5,177.8 Z" fill="#7A9480" opacity="0.7"/>
<line x1="600" y1="95" x2="600" y2="205" stroke="#7A9480" stroke-width="1.6" opacity="0.6"/>
<g>
<ellipse cx="600.0" cy="112.4" rx="3.9" ry="6.0" transform="rotate(0.0 600.0 112.4)" fill="#E8C4BC" opacity="0.9"/>
<ellipse cx="606.7" cy="117.3" rx="3.9" ry="6.0" transform="rotate(72.0 606.7 117.3)" fill="#E8C4BC" opacity="0.9"/>
<ellipse cx="604.1" cy="125.1" rx="3.9" ry="6.0" transform="rotate(144.0 604.1 125.1)" fill="#E8C4BC" opacity="0.9"/>
<ellipse cx="595.9" cy="125.1" rx="3.9" ry="6.0" transform="rotate(216.0 595.9 125.1)" fill="#E8C4BC" opacity="0.9"/>
<ellipse cx="593.3" cy="117.3" rx="3.9" ry="6.0" transform="rotate(288.0 593.3 117.3)" fill="#E8C4BC" opacity="0.9"/>
<circle cx="600.0" cy="119.4" r="2.2" fill="#C9847A"/>
</g>
<g>
<ellipse cx="600.0" cy="137.5" rx="3.5" ry="5.4" transform="rotate(0.0 600.0 137.5)" fill="#E8C4BC" opacity="0.9"/>
<ellipse cx="606.1" cy="141.9" rx="3.5" ry="5.4" transform="rotate(72.0 606.1 141.9)" fill="#E8C4BC" opacity="0.9"/>
<ellipse cx="603.8" cy="149.1" rx="3.5" ry="5.4" transform="rotate(144.0 603.8 149.1)" fill="#E8C4BC" opacity="0.9"/>
<ellipse cx="596.2" cy="149.1" rx="3.5" ry="5.4" transform="rotate(216.0 596.2 149.1)" fill="#E8C4BC" opacity="0.9"/>
<ellipse cx="593.9" cy="141.9" rx="3.5" ry="5.4" transform="rotate(288.0 593.9 141.9)" fill="#E8C4BC" opacity="0.9"/>
<circle cx="600.0" cy="143.9" r="2.0" fill="#B8955A"/>
</g>
<g>
<ellipse cx="600.0" cy="162.5" rx="3.2" ry="4.9" transform="rotate(0.0 600.0 162.5)" fill="#E8C4BC" opacity="0.9"/>
<ellipse cx="605.5" cy="166.5" rx="3.2" ry="4.9" transform="rotate(72.0 605.5 166.5)" fill="#E8C4BC" opacity="0.9"/>
<ellipse cx="603.4" cy="173.0" rx="3.2" ry="4.9" transform="rotate(144.0 603.4 173.0)" fill="#E8C4BC" opacity="0.9"/>
<ellipse cx="596.6" cy="173.0" rx="3.2" ry="4.9" transform="rotate(216.0 596.6 173.0)" fill="#E8C4BC" opacity="0.9"/>
<ellipse cx="594.5" cy="166.5" rx="3.2" ry="4.9" transform="rotate(288.0 594.5 166.5)" fill="#E8C4BC" opacity="0.9"/>
<circle cx="600.0" cy="168.3" r="1.9" fill="#C9847A"/>
</g>
<g>
<ellipse cx="600.0" cy="187.6" rx="2.9" ry="4.4" transform="rotate(0.0 600.0 187.6)" fill="#E8C4BC" opacity="0.9"/>
<ellipse cx="604.9" cy="191.2" rx="2.9" ry="4.4" transform="rotate(72.0 604.9 191.2)" fill="#E8C4BC" opacity="0.9"/>
<ellipse cx="603.1" cy="197.0" rx="2.9" ry="4.4" transform="rotate(144.0 603.1 197.0)" fill="#E8C4BC" opacity="0.9"/>
<ellipse cx="596.9" cy="197.0" rx="2.9" ry="4.4" transform="rotate(216.0 596.9 197.0)" fill="#E8C4BC" opacity="0.9"/>
<ellipse cx="595.1" cy="191.2" rx="2.9" ry="4.4" transform="rotate(288.0 595.1 191.2)" fill="#E8C4BC" opacity="0.9"/>
<circle cx="600.0" cy="192.8" r="1.7" fill="#B8955A"/>
</g>
<path d="M587.0,141.3 Q588.5,152.0 597.0,158.7 Q595.5,148.0 587.0,141.3 Z" fill="#7A9480" opacity="0.7"/>
<path d="M603.5,177.8 Q611.0,171.8 612.5,162.2 Q605.0,168.2 603.5,177.8 Z" fill="#7A9480" opacity="0.7"/>
<line x1="1320" y1="95" x2="1320" y2="205" stroke="#7A9480" stroke-width="1.6" opacity="0.6"/>
<g>
<ellipse cx="1320.0" cy="112.4" rx="3.9" ry="6.0" transform="rotate(0.0 1320.0 112.4)" fill="#E8C4BC" opacity="0.9"/>
<ellipse cx="1326.7" cy="117.3" rx="3.9" ry="6.0" transform="rotate(72.0 1326.7 117.3)" fill="#E8C4BC" opacity="0.9"/>
<ellipse cx="1324.1" cy="125.1" rx="3.9" ry="6.0" transform="rotate(144.0 1324.1 125.1)" fill="#E8C4BC" opacity="0.9"/>
<ellipse cx="1315.9" cy="125.1" rx="3.9" ry="6.0" transform="rotate(216.0 1315.9 125.1)" fill="#E8C4BC" opacity="0.9"/>
<ellipse cx="1313.3" cy="117.3" rx="3.9" ry="6.0" transform="rotate(288.0 1313.3 117.3)" fill="#E8C4BC" opacity="0.9"/>
<circle cx="1320.0" cy="119.4" r="2.2" fill="#C9847A"/>
</g>
<g>
<ellipse cx="1320.0" cy="137.5" rx="3.5" ry="5.4" transform="rotate(0.0 1320.0 137.5)" fill="#E8C4BC" opacity="0.9"/>
<ellipse cx="1326.1" cy="141.9" rx="3.5" ry="5.4" transform="rotate(72.0 1326.1 141.9)" fill="#E8C4BC" opacity="0.9"/>
<ellipse cx="1323.8" cy="149.1" rx="3.5" ry="5.4" transform="rotate(144.0 1323.8 149.1)" fill="#E8C4BC" opacity="0.9"/>
<ellipse cx="1316.2" cy="149.1" rx="3.5" ry="5.4" transform="rotate(216.0 1316.2 149.1)" fill="#E8C4BC" opacity="0.9"/>
<ellipse cx="1313.9" cy="141.9" rx="3.5" ry="5.4" transform="rotate(288.0 1313.9 141.9)" fill="#E8C4BC" opacity="0.9"/>
<circle cx="1320.0" cy="143.9" r="2.0" fill="#B8955A"/>
</g>
<g>
<ellipse cx="1320.0" cy="162.5" rx="3.2" ry="4.9" transform="rotate(0.0 1320.0 162.5)" fill="#E8C4BC" opacity="0.9"/>
<ellipse cx="1325.5" cy="166.5" rx="3.2" ry="4.9" transform="rotate(72.0 1325.5 166.5)" fill="#E8C4BC" opacity="0.9"/>
<ellipse cx="1323.4" cy="173.0" rx="3.2" ry="4.9" transform="rotate(144.0 1323.4 173.0)" fill="#E8C4BC" opacity="0.9"/>
<ellipse cx="1316.6" cy="173.0" rx="3.2" ry="4.9" transform="rotate(216.0 1316.6 173.0)" fill="#E8C4BC" opacity="0.9"/>
<ellipse cx="1314.5" cy="166.5" rx="3.2" ry="4.9" transform="rotate(288.0 1314.5 166.5)" fill="#E8C4BC" opacity="0.9"/>
<circle cx="1320.0" cy="168.3" r="1.9" fill="#C9847A"/>
</g>
<g>
<ellipse cx="1320.0" cy="187.6" rx="2.9" ry="4.4" transform="rotate(0.0 1320.0 187.6)" fill="#E8C4BC" opacity="0.9"/>
<ellipse cx="1324.9" cy="191.2" rx="2.9" ry="4.4" transform="rotate(72.0 1324.9 191.2)" fill="#E8C4BC" opacity="0.9"/>
<ellipse cx="1323.1" cy="197.0" rx="2.9" ry="4.4" transform="rotate(144.0 1323.1 197.0)" fill="#E8C4BC" opacity="0.9"/>
<ellipse cx="1316.9" cy="197.0" rx="2.9" ry="4.4" transform="rotate(216.0 1316.9 197.0)" fill="#E8C4BC" opacity="0.9"/>
<ellipse cx="1315.1" cy="191.2" rx="2.9" ry="4.4" transform="rotate(288.0 1315.1 191.2)" fill="#E8C4BC" opacity="0.9"/>
<circle cx="1320.0" cy="192.8" r="1.7" fill="#B8955A"/>
</g>
<path d="M1307.0,141.3 Q1308.5,152.0 1317.0,158.7 Q1315.5,148.0 1307.0,141.3 Z" fill="#7A9480" opacity="0.7"/>
<path d="M1323.5,177.8 Q1331.0,171.8 1332.5,162.2 Q1325.0,168.2 1323.5,177.8 Z" fill="#7A9480" opacity="0.7"/>
<line x1="1620" y1="95" x2="1620" y2="205" stroke="#7A9480" stroke-width="1.6" opacity="0.6"/>
<g>
<ellipse cx="1620.0" cy="112.4" rx="3.9" ry="6.0" transform="rotate(0.0 1620.0 112.4)" fill="#E8C4BC" opacity="0.9"/>
<ellipse cx="1626.7" cy="117.3" rx="3.9" ry="6.0" transform="rotate(72.0 1626.7 117.3)" fill="#E8C4BC" opacity="0.9"/>
<ellipse cx="1624.1" cy="125.1" rx="3.9" ry="6.0" transform="rotate(144.0 1624.1 125.1)" fill="#E8C4BC" opacity="0.9"/>
<ellipse cx="1615.9" cy="125.1" rx="3.9" ry="6.0" transform="rotate(216.0 1615.9 125.1)" fill="#E8C4BC" opacity="0.9"/>
<ellipse cx="1613.3" cy="117.3" rx="3.9" ry="6.0" transform="rotate(288.0 1613.3 117.3)" fill="#E8C4BC" opacity="0.9"/>
<circle cx="1620.0" cy="119.4" r="2.2" fill="#C9847A"/>
</g>
<g>
<ellipse cx="1620.0" cy="137.5" rx="3.5" ry="5.4" transform="rotate(0.0 1620.0 137.5)" fill="#E8C4BC" opacity="0.9"/>
<ellipse cx="1626.1" cy="141.9" rx="3.5" ry="5.4" transform="rotate(72.0 1626.1 141.9)" fill="#E8C4BC" opacity="0.9"/>
<ellipse cx="1623.8" cy="149.1" rx="3.5" ry="5.4" transform="rotate(144.0 1623.8 149.1)" fill="#E8C4BC" opacity="0.9"/>
<ellipse cx="1616.2" cy="149.1" rx="3.5" ry="5.4" transform="rotate(216.0 1616.2 149.1)" fill="#E8C4BC" opacity="0.9"/>
<ellipse cx="1613.9" cy="141.9" rx="3.5" ry="5.4" transform="rotate(288.0 1613.9 141.9)" fill="#E8C4BC" opacity="0.9"/>
<circle cx="1620.0" cy="143.9" r="2.0" fill="#B8955A"/>
</g>
<g>
<ellipse cx="1620.0" cy="162.5" rx="3.2" ry="4.9" transform="rotate(0.0 1620.0 162.5)" fill="#E8C4BC" opacity="0.9"/>
<ellipse cx="1625.5" cy="166.5" rx="3.2" ry="4.9" transform="rotate(72.0 1625.5 166.5)" fill="#E8C4BC" opacity="0.9"/>
<ellipse cx="1623.4" cy="173.0" rx="3.2" ry="4.9" transform="rotate(144.0 1623.4 173.0)" fill="#E8C4BC" opacity="0.9"/>
<ellipse cx="1616.6" cy="173.0" rx="3.2" ry="4.9" transform="rotate(216.0 1616.6 173.0)" fill="#E8C4BC" opacity="0.9"/>
<ellipse cx="1614.5" cy="166.5" rx="3.2" ry="4.9" transform="rotate(288.0 1614.5 166.5)" fill="#E8C4BC" opacity="0.9"/>
<circle cx="1620.0" cy="168.3" r="1.9" fill="#C9847A"/>
</g>
<g>
<ellipse cx="1620.0" cy="187.6" rx="2.9" ry="4.4" transform="rotate(0.0 1620.0 187.6)" fill="#E8C4BC" opacity="0.9"/>
<ellipse cx="1624.9" cy="191.2" rx="2.9" ry="4.4" transform="rotate(72.0 1624.9 191.2)" fill="#E8C4BC" opacity="0.9"/>
<ellipse cx="1623.1" cy="197.0" rx="2.9" ry="4.4" transform="rotate(144.0 1623.1 197.0)" fill="#E8C4BC" opacity="0.9"/>
<ellipse cx="1616.9" cy="197.0" rx="2.9" ry="4.4" transform="rotate(216.0 1616.9 197.0)" fill="#E8C4BC" opacity="0.9"/>
<ellipse cx="1615.1" cy="191.2" rx="2.9" ry="4.4" transform="rotate(288.0 1615.1 191.2)" fill="#E8C4BC" opacity="0.9"/>
<circle cx="1620.0" cy="192.8" r="1.7" fill="#B8955A"/>
</g>
<path d="M1607.0,141.3 Q1608.5,152.0 1617.0,158.7 Q1615.5,148.0 1607.0,141.3 Z" fill="#7A9480" opacity="0.7"/>
<path d="M1623.5,177.8 Q1631.0,171.8 1632.5,162.2 Q1625.0,168.2 1623.5,177.8 Z" fill="#7A9480" opacity="0.7"/>
<line x1="905" y1="15" x2="922" y2="128" stroke="#9C7C45" stroke-width="2"/>
<line x1="1015" y1="15" x2="998" y2="128" stroke="#9C7C45" stroke-width="2"/>
<path d="M915,128 Q960,142 1005,128" fill="none" stroke="#B8955A" stroke-width="5" stroke-linecap="round"/>
<line x1="930" y1="134" x2="930" y2="154" stroke="#F0A500" stroke-width="1.5" opacity="0.8"/>
<circle cx="930" cy="156" r="4" fill="#F0A500"/>
<line x1="950" y1="134" x2="950" y2="154" stroke="#F0A500" stroke-width="1.5" opacity="0.8"/>
<circle cx="950" cy="156" r="4" fill="#F0A500"/>
<line x1="970" y1="134" x2="970" y2="154" stroke="#F0A500" stroke-width="1.5" opacity="0.8"/>
<circle cx="970" cy="156" r="4" fill="#F0A500"/>
<line x1="990" y1="134" x2="990" y2="154" stroke="#F0A500" stroke-width="1.5" opacity="0.8"/>
<circle cx="990" cy="156" r="4" fill="#F0A500"/>
<g>
<ellipse cx="922.0" cy="114.0" rx="4.4" ry="6.8" transform="rotate(0.0 922.0 114.0)" fill="#E8C4BC" opacity="0.9"/>
<ellipse cx="929.6" cy="119.5" rx="4.4" ry="6.8" transform="rotate(72.0 929.6 119.5)" fill="#E8C4BC" opacity="0.9"/>
<ellipse cx="926.7" cy="128.5" rx="4.4" ry="6.8" transform="rotate(144.0 926.7 128.5)" fill="#E8C4BC" opacity="0.9"/>
<ellipse cx="917.3" cy="128.5" rx="4.4" ry="6.8" transform="rotate(216.0 917.3 128.5)" fill="#E8C4BC" opacity="0.9"/>
<ellipse cx="914.4" cy="119.5" rx="4.4" ry="6.8" transform="rotate(288.0 914.4 119.5)" fill="#E8C4BC" opacity="0.9"/>
<circle cx="922.0" cy="122.0" r="2.6" fill="#B8955A"/>
</g>
<g>
<ellipse cx="998.0" cy="114.0" rx="4.4" ry="6.8" transform="rotate(0.0 998.0 114.0)" fill="#E8C4BC" opacity="0.9"/>
<ellipse cx="1005.6" cy="119.5" rx="4.4" ry="6.8" transform="rotate(72.0 1005.6 119.5)" fill="#E8C4BC" opacity="0.9"/>
<ellipse cx="1002.7" cy="128.5" rx="4.4" ry="6.8" transform="rotate(144.0 1002.7 128.5)" fill="#E8C4BC" opacity="0.9"/>
<ellipse cx="993.3" cy="128.5" rx="4.4" ry="6.8" transform="rotate(216.0 993.3 128.5)" fill="#E8C4BC" opacity="0.9"/>
<ellipse cx="990.4" cy="119.5" rx="4.4" ry="6.8" transform="rotate(288.0 990.4 119.5)" fill="#E8C4BC" opacity="0.9"/>
<circle cx="998.0" cy="122.0" r="2.6" fill="#B8955A"/>
</g>
<g>
<ellipse cx="960.0" cy="129.0" rx="5.0" ry="7.6" transform="rotate(0.0 960.0 129.0)" fill="#F5C518" opacity="0.9"/>
<ellipse cx="968.6" cy="135.2" rx="5.0" ry="7.6" transform="rotate(72.0 968.6 135.2)" fill="#F5C518" opacity="0.9"/>
<ellipse cx="965.3" cy="145.3" rx="5.0" ry="7.6" transform="rotate(144.0 965.3 145.3)" fill="#F5C518" opacity="0.9"/>
<ellipse cx="954.7" cy="145.3" rx="5.0" ry="7.6" transform="rotate(216.0 954.7 145.3)" fill="#F5C518" opacity="0.9"/>
<ellipse cx="951.4" cy="135.2" rx="5.0" ry="7.6" transform="rotate(288.0 951.4 135.2)" fill="#F5C518" opacity="0.9"/>
<circle cx="960.0" cy="138.0" r="2.9" fill="#F0A500"/>
</g>
<path d="M932.5,111.3 Q939.0,116.8 947.5,116.7 Q941.0,111.2 932.5,111.3 Z" fill="#7A9480" opacity="0.75"/>
<path d="M972.5,116.7 Q981.0,116.8 987.5,111.3 Q979.0,111.2 972.5,116.7 Z" fill="#7A9480" opacity="0.75"/>
<circle cx="914.0" cy="23.0" r="5.6" fill="#F0A500" opacity="0.92"/>
<circle cx="910.6" cy="30.0" r="5.6" fill="#F0A500" opacity="0.92"/>
<circle cx="903.0" cy="31.8" r="5.6" fill="#F0A500" opacity="0.92"/>
<circle cx="896.9" cy="26.9" r="5.6" fill="#F0A500" opacity="0.92"/>
<circle cx="896.9" cy="19.1" r="5.6" fill="#F0A500" opacity="0.92"/>
<circle cx="903.0" cy="14.2" r="5.6" fill="#F0A500" opacity="0.92"/>
<circle cx="910.6" cy="16.0" r="5.6" fill="#F0A500" opacity="0.92"/>
<circle cx="905.0" cy="23.0" r="5.0" fill="#C97A00"/>
<circle cx="1024.0" cy="23.0" r="5.6" fill="#F5C518" opacity="0.92"/>
<circle cx="1020.6" cy="30.0" r="5.6" fill="#F5C518" opacity="0.92"/>
<circle cx="1013.0" cy="31.8" r="5.6" fill="#F5C518" opacity="0.92"/>
<circle cx="1006.9" cy="26.9" r="5.6" fill="#F5C518" opacity="0.92"/>
<circle cx="1006.9" cy="19.1" r="5.6" fill="#F5C518" opacity="0.92"/>
<circle cx="1013.0" cy="14.2" r="5.6" fill="#F5C518" opacity="0.92"/>
<circle cx="1020.6" cy="16.0" r="5.6" fill="#F5C518" opacity="0.92"/>
<circle cx="1015.0" cy="23.0" r="5.0" fill="#C97A00"/>
</svg>