<svg xmlns="http://www.w3.org/2000/svg" width="1920" height="180" viewBox="0 0 1920 180">
<ellipse cx="291.1" cy="169.1" rx="6.3" ry="3.5" transform="rotate(182.8 291.1 169.1)" fill="#E8C4BC" opacity="0.58"/>
<ellipse cx="1647.4" cy="149.3" rx="4.9" ry="2.7" transform="rotate(160.8 1647.4 149.3)" fill="#F0A500" opacity="0.54"/>
<ellipse cx="1760.6" cy="112.7" rx="8.9" ry="4.9" transform="rotate(347.3 1760.6 112.7)" fill="#E8C4BC" opacity="0.80"/>
<ellipse cx="1724.0" cy="163.2" rx="4.3" ry="2.4" transform="rotate(12.8 1724.0 163.2)" fill="#F0A500" opacity="0.74"/>
<ellipse cx="1569.7" cy="147.8" rx="5.0" ry="2.7" transform="rotate(84.1 1569.7 147.8)" fill="#F5C518" opacity="0.70"/>
<ellipse cx="1637.8" cy="127.8" rx="9.0" ry="4.9" transform="rotate(358.4 1637.8 127.8)" fill="#F0A500" opacity="0.78"/>
<ellipse cx="119.4" cy="128.5" rx="4.4" ry="2.4" transform="rotate(275.9 119.4 128.5)" fill="#F5C518" opacity="0.54"/>
<ellipse cx="34.7" cy="111.1" rx="7.4" ry="4.1" transform="rotate(76.9 34.7 111.1)" fill="#F0A500" opacity="0.69"/>
<ellipse cx="1606.7" cy="114.7" rx="7.1" ry="3.9" transform="rotate(280.3 1606.7 114.7)" fill="#F5C518" opacity="0.63"/>
<ellipse cx="7.9" cy="136.2" rx="8.6" ry="4.7" transform="rotate(48.5 7.9 136.2)" fill="#E8C4BC" opacity="0.54"/>
<ellipse cx="414.5" cy="121.4" rx="6.8" ry="3.7" transform="rotate(161.1 414.5 121.4)" fill="#F0A500" opacity="0.89"/>
<ellipse cx="1618.0" cy="134.6" rx="6.0" ry="3.3" transform="rotate(356.4 1618.0 134.6)" fill="#F0A500" opacity="0.61"/>
<ellipse cx="1817.8" cy="129.5" rx="8.4" ry="4.6" transform="rotate(75.9 1817.8 129.5)" fill="#F5C518" opacity="0.90"/>
<ellipse cx="1700.0" cy="112.7" rx="4.7" ry="2.6" transform="rotate(159.0 1700.0 112.7)" fill="#F0A500" opacity="0.81"/>
<ellipse cx="154.1" cy="114.7" rx="4.5" ry="2.4" transform="rotate(209.8 154.1 114.7)" fill="#F0A500" opacity="0.51"/>
<ellipse cx="323.5" cy="118.1" rx="6.9" ry="3.8" transform="rotate(299.6 323.5 118.1)" fill="#F0A500" opacity="0.85"/>
<ellipse cx="80.2" cy="168.1" rx="8.1" ry="4.4" transform="rotate(89.8 80.2 168.1)" fill="#F0A500" opacity="0.56"/>
<ellipse cx="1688.0" cy="154.0" rx="5.9" ry="3.3" transform="rotate(173.7 1688.0 154.0)" fill="#F0A500" opacity="0.67"/>
<ellipse cx="20.1" cy="171.6" rx="5.2" ry="2.9" transform="rotate(253.6 20.1 171.6)" fill="#F5C518" opacity="0.67"/>
<ellipse cx="1655.3" cy="143.3" rx="8.6" ry="4.8" transform="rotate(351.8 1655.3 143.3)" fill="#F0A500" opacity="0.59"/>
<ellipse cx="443.2" cy="149.3" rx="5.4" ry="3.0" transform="rotate(330.2 443.2 149.3)" fill="#F0A500" opacity="0.80"/>
<ellipse cx="213.9" cy="125.9" rx="4.2" ry="2.3" transform="rotate(101.5 213.9 125.9)" fill="#E8C4BC" opacity="0.73"/>
<ellipse cx="188.3" cy="167.0" rx="8.9" ry="4.9" transform="rotate(236.5 188.3 167.0)" fill="#E8C4BC" opacity="0.71"/>
<ellipse cx="1706.7" cy="169.1" rx="6.4" ry="3.5" transform="rotate(128.7 1706.7 169.1)" fill="#F5C518" opacity="0.89"/>
<ellipse cx="330.8" cy="140.9" rx="7.7" ry="4.2" transform="rotate(114.8 330.8 140.9)" fill="#F0A500" opacity="0.53"/>
<ellipse cx="383.2" cy="167.6" rx="7.7" ry="4.2" transform="rotate(253.3 383.2 167.6)" fill="#F5C518" opacity="0.64"/>
<ellipse cx="1868.4" cy="165.8" rx="6.1" ry="3.3" transform="rotate(284.6 1868.4 165.8)" fill="#F5C518" opacity="0.73"/>
<ellipse cx="1598.8" cy="147.3" rx="7.0" ry="3.9" transform="rotate(28.9 1598.8 147.3)" fill="#E8C4BC" opacity="0.55"/>
<ellipse cx="216.4" cy="131.1" rx="8.7" ry="4.8" transform="rotate(249.9 216.4 131.1)" fill="#F5C518" opacity="0.68"/>
<ellipse cx="1443.6" cy="158.0" rx="4.1" ry="2.3" transform="rotate(216.5 1443.6 158.0)" fill="#F5C518" opacity="0.51"/>
<ellipse cx="1458.7" cy="159.9" rx="7.3" ry="4.0" transform="rotate(175.1 1458.7 159.9)" fill="#F0A500" opacity="0.65"/>
<ellipse cx="318.1" cy="143.2" rx="7.8" ry="4.3" transform="rotate(123.3 318.1 143.2)" fill="#F5C518" opacity="0.70"/>
<ellipse cx="210.5" cy="126.0" rx="7.2" ry="3.9" transform="rotate(289.3 210.5 126.0)" fill="#F0A500" opacity="0.85"/>
<ellipse cx="303.2" cy="130.3" rx="4.7" ry="2.6" transform="rotate(178.7 303.2 130.3)" fill="#F0A500" opacity="0.78"/>
<ellipse cx="1543.9" cy="120.8" rx="6.3" ry="3.4" transform="rotate(99.1 1543.9 120.8)" fill="#F0A500" opacity="0.83"/>
<ellipse cx="270.4" cy="153.0" rx="7.6" ry="4.2" transform="rotate(303.1 270.4 153.0)" fill="#E8C4BC" opacity="0.68"/>
<ellipse cx="16.4" cy="165.9" rx="4.2" ry="2.3" transform="rotate(255.1 16.4 165.9)" fill="#E8C4BC" opacity="0.64"/>
<ellipse cx="1693.3" cy="151.0" rx="6.0" ry="3.3" transform="rotate(68.4 1693.3 151.0)" fill="#F5C518" opacity="0.59"/>
<ellipse cx="24.4" cy="150.3" rx="6.2" ry="3.4" transform="rotate(226.8 24.4 150.3)" fill="#E8C4BC" opacity="0.76"/>
<ellipse cx="40.5" cy="122.7" rx="8.1" ry="4.5" transform="rotate(92.2 40.5 122.7)" fill="#E8C4BC" opacity="0.50"/>
<ellipse cx="371.4" cy="121.5" rx="5.4" ry="2.9" transform="rotate(124.5 371.4 121.5)" fill="#E8C4BC" opacity="0.88"/>
<ellipse cx="518.3" cy="120.2" rx="8.2" ry="4.5" transform="rotate(251.9 518.3 120.2)" fill="#F0A500" opacity="0.53"/>
<ellipse cx="1775.6" cy="118.3" rx="6.3" ry="3.4" transform="rotate(225.2 1775.6 118.3)" fill="#F0A500" opacity="0.65"/>
<ellipse cx="457.2" cy="161.0" rx="8.7" ry="4.8" transform="rotate(166.9 457.2 161.0)" fill="#E8C4BC" opacity="0.89"/>
<ellipse cx="450.4" cy="161.1" rx="8.6" ry="4.7" transform="rotate(44.5 450.4 161.1)" fill="#F0A500" opacity="0.86"/>
<ellipse cx="1908.2" cy="144.4" rx="8.0" ry="4.4" transform="rotate(115.3 1908.2 144.4)" fill="#E8C4BC" opacity="0.84"/>
<ellipse cx="43.0" cy="138.2" rx="6.8" ry="3.7" transform="rotate(276.6 43.0 138.2)" fill="#F5C518" opacity="0.87"/>
<ellipse cx="451.1" cy="137.5" rx="4.2" ry="2.3" transform="rotate(191.9 451.1 137.5)" fill="#E8C4BC" opacity="0.82"/>
<ellipse cx="77.3" cy="143.1" rx="7.6" ry="4.2" transform="rotate(302.4 77.3 143.1)" fill="#E8C4BC" opacity="0.68"/>
<ellipse cx="1701.1" cy="154.1" rx="7.8" ry="4.3" transform="rotate(158.2 1701.1 154.1)" fill="#E8C4BC" opacity="0.62"/>
<ellipse cx="1732.2" cy="143.5" rx="8.2" ry="4.5" transform="rotate(201.6 1732.2 143.5)" fill="#F5C518" opacity="0.77"/>
<ellipse cx="1852.4" cy="149.0" rx="5.5" ry="3.0" transform="rotate(50.8 1852.4 149.0)" fill="#E8C4BC" opacity="0.71"/>
<ellipse cx="104.5" cy="144.3" rx="6.5" ry="3.6" transform="rotate(217.9 104.5 144.3)" fill="#F0A500" opacity="0.72"/>
<ellipse cx="477.0" cy="144.8" rx="8.9" ry="4.9" transform="rotate(43.9 477.0 144.8)" fill="#F0A500" opacity="0.78"/>
<ellipse cx="280.1" cy="136.5" rx="8.8" ry="4.8" transform="rotate(332.4 280.1 136.5)" fill="#F5C518" opacity="0.60"/>
<ellipse cx="176.6" cy="167.7" rx="8.7" ry="4.8" transform="rotate(331.2 176.6 167.7)" fill="#E8C4BC" opacity="0.63"/>
<ellipse cx="321.3" cy="169.2" rx="4.6" ry="2.6" transform="rotate(280.5 321.3 169.2)" fill="#F0A500" opacity="0.51"/>
<ellipse cx="6.2" cy="128.2" rx="7.6" ry="4.2" transform="rotate(88.0 6.2 128.2)" fill="#F5C518" opacity="0.54"/>
<ellipse cx="1463.8" cy="142.7" rx="5.3" ry="2.9" transform="rotate(71.2 1463.8 142.7)" fill="#E8C4BC" opacity="0.85"/>
<ellipse cx="329.2" cy="162.8" rx="7.1" ry="3.9" transform="rotate(193.7 329.2 162.8)" fill="#E8C4BC" opacity="0.71"/>
<ellipse cx="112.4" cy="144.7" rx="6.9" ry="3.8" transform="rotate(49.1 112.4 144.7)" fill="#E8C4BC" opacity="0.75"/>
<ellipse cx="94.2" cy="148.6" rx="8.5" ry="4.6" transform="rotate(70.1 94.2 148.6)" fill="#F0A500" opacity="0.86"/>
<ellipse cx="124.5" cy="156.5" rx="5.3" ry="2.9" transform="rotate(34.9 124.5 156.5)" fill="#F5C518" opacity="0.72"/>
<ellipse cx="1504.3" cy="150.2" rx="8.0" ry="4.4" transform="rotate(34.6 1504.3 150.2)" fill="#E8C4BC" opacity="0.77"/>
<ellipse cx="1903.6" cy="117.4" rx="6.5" ry="3.6" transform="rotate(272.9 1903.6 117.4)" fill="#E8C4BC" opacity="0.90"/>
<ellipse cx="1817.5" cy="140.9" rx="4.1" ry="2.3" transform="rotate(274.3 1817.5 140.9)" fill="#E8C4BC" opacity="0.71"/>
<ellipse cx="76.2" cy="121.8" rx="5.0" ry="2.8" transform="rotate(302.5 76.2 121.8)" fill="#F5C518" opacity="0.87"/>
<ellipse cx="32.2" cy="170.9" rx="6.3" ry="3.5" transform="rotate(275.3 32.2 170.9)" fill="#F5C518" opacity="0.66"/>
<ellipse cx="184.4" cy="123.4" rx="5.9" ry="3.2" transform="rotate(228.2 184.4 123.4)" fill="#F0A500" opacity="0.84"/>
<ellipse cx="236.1" cy="157.3" rx="6.0" ry="3.3" transform="rotate(70.2 236.1 157.3)" fill="#F0A500" opacity="0.54"/>
<ellipse cx="1521.3" cy="158.4" rx="3.3" ry="1.6" transform="rotate(303.1 1521.3 158.4)" fill="#E8C4BC" opacity="0.58"/>
<ellipse cx="1093.8" cy="155.0" rx="4.8" ry="2.4" transform="rotate(122.8 1093.8 155.0)" fill="#F5C518" opacity="0.42"/>
<ellipse cx="223.2" cy="169.3" rx="3.5" ry="1.7" transform="rotate(336.2 223.2 169.3)" fill="#F0A500" opacity="0.57"/>
<ellipse cx="1689.3" cy="168.1" rx="5.3" ry="2.7" transform="rotate(275.5 1689.3 168.1)" fill="#F5C518" opacity="0.40"/>
<ellipse cx="354.8" cy="170.7" rx="3.9" ry="2.0" transform="rotate(36.3 354.8 170.7)" fill="#F5C518" opacity="0.60"/>
<ellipse cx="1733.2" cy="151.3" rx="3.8" ry="1.9" transform="rotate(346.1 1733.2 151.3)" fill="#F5C518" opacity="0.43"/>
<ellipse cx="1266.7" cy="164.8" rx="4.6" ry="2.3" transform="rotate(140.3 1266.7 164.8)" fill="#F5C518" opacity="0.51"/>
<ellipse cx="1346.4" cy="169.8" rx="5.9" ry="3.0" transform="rotate(8.2 1346.4 169.8)" fill="#E8C4BC" opacity="0.38"/>
<ellipse cx="455.1" cy="161.5" rx="4.5" ry="2.3" transform="rotate(274.1 455.1 161.5)" fill="#E8C4BC" opacity="0.44"/>
<ellipse cx="189.0" cy="156.5" rx="5.7" ry="2.9" transform="rotate(198.0 189.0 156.5)" fill="#E8C4BC" opacity="0.45"/>
<ellipse cx="999.7" cy="172.0" rx="3.3" ry="1.6" transform="rotate(160.0 999.7 172.0)" fill="#E8C4BC" opacity="0.37"/>
<ellipse cx="1147.3" cy="169.7" rx="3.1" ry="1.6" transform="rotate(334.9 1147.3 169.7)" fill="#F0A500" opacity="0.45"/>
<ellipse cx="1862.5" cy="172.2" rx="4.6" ry="2.3" transform="rotate(214.8 1862.5 172.2)" fill="#F5C518" opacity="0.59"/>
<ellipse cx="807.8" cy="163.7" rx="4.8" ry="2.4" transform="rotate(131.6 807.8 163.7)" fill="#F5C518" opacity="0.47"/>
<ellipse cx="517.9" cy="174.2" rx="5.0" ry="2.5" transform="rotate(269.2 517.9 174.2)" fill="#F0A500" opacity="0.35"/>
<ellipse cx="470.4" cy="151.1" rx="3.5" ry="1.7" transform="rotate(271.7 470.4 151.1)" fill="#F5C518" opacity="0.36"/>
<ellipse cx="605.1" cy="160.3" rx="4.7" ry="2.4" transform="rotate(260.3 605.1 160.3)" fill="#F5C518" opacity="0.37"/>
<ellipse cx="1738.7" cy="161.2" rx="4.4" ry="2.2" transform="rotate(350.3 1738.7 161.2)" fill="#F0A500" opacity="0.36"/>
<ellipse cx="189.1" cy="171.1" rx="5.7" ry="2.9" transform="rotate(52.0 189.1 171.1)" fill="#F0A500" opacity="0.50"/>
<ellipse cx="221.0" cy="166.2" rx="4.4" ry="2.2" transform="rotate(73.3 221.0 166.2)" fill="#F0A500" opacity="0.44"/>
<ellipse cx="297.1" cy="159.4" rx="3.4" ry="1.7" transform="rotate(150.1 297.1 159.4)" fill="#E8C4BC" opacity="0.42"/>
<ellipse cx="1117.9" cy="160.9" rx="5.3" ry="2.7" transform="rotate(191.1 1117.9 160.9)" fill="#F0A500" opacity="0.59"/>
<ellipse cx="1409.8" cy="156.2" rx="3.3" ry="1.7" transform="rotate(321.4 1409.8 156.2)" fill="#E8C4BC" opacity="0.51"/>
<ellipse cx="689.6" cy="157.1" rx="5.1" ry="2.5" transform="rotate(203.4 689.6 157.1)" fill="#E8C4BC" opacity="0.40"/>
<ellipse cx="535.0" cy="156.2" rx="5.9" ry="2.9" transform="rotate(180.8 535.0 156.2)" fill="#E8C4BC" opacity="0.58"/>
<path d="M-2.9,182.0 Q33.4,179.4 62.9,158.0 Q26.6,160.6 -2.9,182.0 Z" fill="#7A9480" opacity="0.75"/>
<path d="M32.9,145.2 Q58.6,157.9 87.1,154.8 Q61.4,142.1 32.9,145.2 Z" fill="#7A9480" opacity="0.75"/>
<path d="M2.1,153.4 Q20.7,139.0 27.9,116.6 Q9.3,131.0 2.1,153.4 Z" fill="#7A9480" opacity="0.75"/>
<path d="M67.3,161.4 Q86.8,178.8 112.7,182.6 Q93.2,165.2 67.3,161.4 Z" fill="#7A9480" opacity="0.75"/>
<g>
<ellipse cx="70.0" cy="115.0" rx="5.5" ry="8.5" transform="rotate(0.0 70.0 115.0)" fill="#E8C4BC" opacity="0.9"/>
<ellipse cx="79.5" cy="121.9" rx="5.5" ry="8.5" transform="rotate(72.0 79.5 121.9)" fill="#E8C4BC" opacity="0.9"/>
<ellipse cx="75.9" cy="133.1" rx="5.5" ry="8.5" transform="rotate(144.0 75.9 133.1)" fill="#E8C4BC" opacity="0.9"/>
<ellipse cx="64.1" cy="133.1" rx="5.5" ry="8.5" transform="rotate(216.0 64.1 133.1)" fill="#E8C4BC" opacity="0.9"/>
<ellipse cx="60.5" cy="121.9" rx="5.5" ry="8.5" transform="rotate(288.0 60.5 121.9)" fill="#E8C4BC" opacity="0.9"/>
<circle cx="70.0" cy="125.0" r="3.2" fill="#F0A500"/>
</g>
<g>
<ellipse cx="35.0" cy="148.0" rx="3.9" ry="6.0" transform="rotate(0.0 35.0 148.0)" fill="#F5C518" opacity="0.9"/>
<ellipse cx="41.7" cy="152.8" rx="3.9" ry="6.0" transform="rotate(72.0 41.7 152.8)" fill="#F5C518" opacity="0.9"/>
<ellipse cx="39.1" cy="160.7" rx="3.9" ry="6.0" transform="rotate(144.0 39.1 160.7)" fill="#F5C518" opacity="0.9"/>
<ellipse cx="30.9" cy="160.7" rx="3.9" ry="6.0" transform="rotate(216.0 30.9 160.7)" fill="#F5C518" opacity="0.9"/>
<ellipse cx="28.3" cy="152.8" rx="3.9" ry="6.0" transform="rotate(288.0 28.3 152.8)" fill="#F5C518" opacity="0.9"/>
<circle cx="35.0" cy="155.0" r="2.2" fill="#C97A00"/>
</g>
<path d="M1857.1,158.0 Q1886.6,179.4 1922.9,182.0 Q1893.4,160.6 1857.1,158.0 Z" fill="#7A9480" opacity="0.75"/>
<path d="M1887.1,145.2 Q1858.6,142.1 1832.9,154.8 Q1861.4,157.9 1887.1,145.2 Z" fill="#7A9480" opacity="0.75"/>
<path d="M1892.1,116.6 Q1899.3,139.0 1917.9,153.4 Q1910.7,131.0 1892.1,116.6 Z" fill="#7A9480" opacity="0.75"/>
<path d="M1852.7,161.4 Q1826.8,165.2 1807.3,182.6 Q1833.2,178.8 1852.7,161.4 Z" fill="#7A9480" opacity="0.75"/>
<g>
<ellipse cx="1850.0" cy="115.0" rx="5.5" ry="8.5" transform="rotate(0.0 1850.0 115.0)" fill="#E8C4BC" opacity="0.9"/>
<ellipse cx="1859.5" cy="121.9" rx="5.5" ry="8.5" transform="rotate(72.0 1859.5 121.9)" fill="#E8C4BC" opacity="0.9"/>
<ellipse cx="1855.9" cy="133.1" rx="5.5" ry="8.5" transform="rotate(144.0 1855.9 133.1)" fill="#E8C4BC" opacity="0.9"/>
<ellipse cx="1844.1" cy="133.1" rx="5.5" ry="8.5" transform="rotate(216.0 1844.1 133.1)" fill="#E8C4BC" opacity="0.9"/>
<ellipse cx="1840.5" cy="121.9" rx="5.5" ry="8.5" transform="rotate(288.0 1840.5 121.9)" fill="#E8C4BC" opacity="0.9"/>
<circle cx="1850.0" cy="125.0" r="3.2" fill="#F0A500"/>
</g>
<g>
<ellipse cx="1885.0" cy="148.0" rx="3.9" ry="6.0" transform="rotate(0.0 1885.0 148.0)" fill="#F5C518" opacity="0.9"/>
<ellipse cx="1891.7" cy="152.8" rx="3.9" ry="6.0" transform="rotate(72.0 1891.7 152.8)" fill="#F5C518" opacity="0.9"/>
<ellipse cx="1889.1" cy="160.7" rx="3.9" ry="6.0" transform="rotate(144.0 1889.1 160.7)" fill="#F5C518" opacity="0.9"/>
<ellipse cx="1880.9" cy="160.7" rx="3.9" ry="6.0" transform="rotate(216.0 1880.9 160.7)" fill="#F5C518" opacity="0.9"/>
<ellipse cx="1878.3" cy="152.8" rx="3.9" ry="6.0" transform="rotate(288.0 1878.3 152.8)" fill="#F5C518" opacity="0.9"/>
<circle cx="1885.0" cy="155.0" r="2.2" fill="#C97A00"/>
</g>
<g>
<ellipse cx="340.0" cy="150.0" rx="4.4" ry="6.8" transform="rotate(0.0 340.0 150.0)" fill="#E8C4BC" opacity="0.9"/>
<ellipse cx="347.6" cy="155.5" rx="4.4" ry="6.8" transform="rotate(72.0 347.6 155.5)" fill="#E8C4BC" opacity="0.9"/>
<ellipse cx="344.7" cy="164.5" rx="4.4" ry="6.8" transform="rotate(144.0 344.7 164.5)" fill="#E8C4BC" opacity="0.9"/>
<ellipse cx="335.3" cy="164.5" rx="4.4" ry="6.8" transform="rotate(216.0 335.3 164.5)" fill="#E8C4BC" opacity="0.9"/>
<ellipse cx="332.4" cy="155.5" rx="4.4" ry="6.8" transform="rotate(288.0 332.4 155.5)" fill="#E8C4BC" opacity="0.9"/>
<circle cx="340.0" cy="158.0" r="2.6" fill="#C97A00"/>
</g>
<path d="M352.2,168.3 Q365.8,170.4 377.8,163.7 Q364.2,161.6 352.2,168.3 Z" fill="#7A9480" opacity="0.7"/>
<g>
<ellipse cx="1580.0" cy="150.0" rx="4.4" ry="6.8" transform="rotate(0.0 1580.0 150.0)" fill="#E8C4BC" opacity="0.9"/>
<ellipse cx="1587.6" cy="155.5" rx="4.4" ry="6.8" transform="rotate(72.0 1587.6 155.5)" fill="#E8C4BC" opacity="0.9"/>
<ellipse cx="1584.7" cy="164.5" rx="4.4" ry="6.8" transform="rotate(144.0 1584.7 164.5)" fill="#E8C4BC" opacity="0.9"/>
<ellipse cx="1575.3" cy="164.5" rx="4.4" ry="6.8" transform="rotate(216.0 1575.3 164.5)" fill="#E8C4BC" opacity="0.9"/>
<ellipse cx="1572.4" cy="155.5" rx="4.4" ry="6.8" transform="rotate(288.0 1572.4 155.5)" fill="#E8C4BC" opacity="0.9"/>
<circle cx="1580.0" cy="158.0" r="2.6" fill="#C97A00"/>
</g>
<path d="M1567.8,168.3 Q1555.8,161.6 1542.2,163.7 Q1554.2,170.4 1567.8,168.3 Z" fill="#7A9480" opacity="0.7"/>
</svg>